<?xml version="1.0" encoding="UTF-8"?>
<svg version="1.1" xmlns="http://www.w3.org/2000/svg" width="1024" height="1024">
<path d="M0 0 C1.57921749 -0.00218016 1.57921749 -0.00218016 3.19033837 -0.00440437 C6.70561184 -0.00804342 10.22084138 -0.00458768 13.7361145 -0.0011425 C16.28689534 -0.00229514 18.83767602 -0.00388363 21.38845634 -0.00586975 C26.92793841 -0.00917251 32.46740713 -0.00937714 38.00688934 -0.00682259 C46.24441182 -0.00303417 54.48192609 -0.00497693 62.71944851 -0.00803089 C77.43316561 -0.0132929 92.14687837 -0.01284173 106.86059588 -0.00995198 C119.7368882 -0.00743555 132.61317892 -0.00678014 145.48947144 -0.00797462 C146.34388124 -0.00805101 147.19829104 -0.00812739 148.07859205 -0.00820609 C151.54699738 -0.00851744 155.01540271 -0.00883584 158.48380803 -0.00916586 C191.01420031 -0.01222425 223.54458981 -0.00945236 256.07498166 -0.00406896 C284.97065372 0.00067657 313.86632138 0.00025194 342.76199341 -0.00452995 C375.23322937 -0.00988561 407.70446289 -0.01200734 440.17569923 -0.00891769 C443.63775253 -0.00859698 447.09980583 -0.00828414 450.56185913 -0.00797462 C451.41429297 -0.00789555 452.26672681 -0.00781647 453.14499198 -0.007735 C466.01258606 -0.00659795 478.88017838 -0.00792701 491.74777222 -0.01045418 C506.38009212 -0.01331362 521.012407 -0.01259819 535.64472628 -0.00717343 C543.83197275 -0.00423816 552.01920835 -0.00404402 560.20645454 -0.00781961 C566.3201537 -0.01032783 572.43383877 -0.00760534 578.54753709 -0.00284503 C581.02046957 -0.00172757 583.49340351 -0.0022972 585.96633506 -0.00472082 C589.32802093 -0.00776286 592.68964777 -0.00464091 596.05133057 0 C597.01077458 -0.00234117 597.97021859 -0.00468233 598.95873666 -0.00709444 C605.36124682 0.01056322 611.65957994 0.45053214 618.02566528 1.12584114 C618.02566528 1.78584114 618.02566528 2.44584114 618.02566528 3.12584114 C619.20129028 3.08459114 620.37691528 3.04334114 621.58816528 3.00084114 C625.74976202 2.98600479 629.09054195 3.81413336 633.02566528 5.12584114 C633.02566528 5.78584114 633.02566528 6.44584114 633.02566528 7.12584114 C635.66566528 7.12584114 638.30566528 7.12584114 641.02566528 7.12584114 C641.02566528 7.78584114 641.02566528 8.44584114 641.02566528 9.12584114 C643.00566528 9.12584114 644.98566528 9.12584114 647.02566528 9.12584114 C647.02566528 9.78584114 647.02566528 10.44584114 647.02566528 11.12584114 C649.00566528 11.12584114 650.98566528 11.12584114 653.02566528 11.12584114 C653.02566528 11.78584114 653.02566528 12.44584114 653.02566528 13.12584114 C654.34566528 13.12584114 655.66566528 13.12584114 657.02566528 13.12584114 C657.02566528 13.78584114 657.02566528 14.44584114 657.02566528 15.12584114 C659.00566528 15.12584114 660.98566528 15.12584114 663.02566528 15.12584114 C663.02566528 15.78584114 663.02566528 16.44584114 663.02566528 17.12584114 C664.34566528 17.12584114 665.66566528 17.12584114 667.02566528 17.12584114 C667.02566528 17.78584114 667.02566528 18.44584114 667.02566528 19.12584114 C668.34566528 19.12584114 669.66566528 19.12584114 671.02566528 19.12584114 C671.02566528 19.78584114 671.02566528 20.44584114 671.02566528 21.12584114 C672.34566528 21.12584114 673.66566528 21.12584114 675.02566528 21.12584114 C675.02566528 21.78584114 675.02566528 22.44584114 675.02566528 23.12584114 C676.34566528 23.12584114 677.66566528 23.12584114 679.02566528 23.12584114 C679.02566528 23.78584114 679.02566528 24.44584114 679.02566528 25.12584114 C681.00566528 25.12584114 682.98566528 25.12584114 685.02566528 25.12584114 C685.02566528 25.78584114 685.02566528 26.44584114 685.02566528 27.12584114 C686.34566528 27.12584114 687.66566528 27.12584114 689.02566528 27.12584114 C689.02566528 27.78584114 689.02566528 28.44584114 689.02566528 29.12584114 C691.00566528 29.78584114 692.98566528 30.44584114 695.02566528 31.12584114 C695.02566528 31.78584114 695.02566528 32.44584114 695.02566528 33.12584114 C696.34566528 33.12584114 697.66566528 33.12584114 699.02566528 33.12584114 C699.02566528 33.78584114 699.02566528 34.44584114 699.02566528 35.12584114 C699.68566528 35.12584114 700.34566528 35.12584114 701.02566528 35.12584114 C701.02566528 35.78584114 701.02566528 36.44584114 701.02566528 37.12584114 C702.34566528 37.12584114 703.66566528 37.12584114 705.02566528 37.12584114 C705.02566528 37.78584114 705.02566528 38.44584114 705.02566528 39.12584114 C707.00566528 39.78584114 708.98566528 40.44584114 711.02566528 41.12584114 C711.02566528 41.78584114 711.02566528 42.44584114 711.02566528 43.12584114 C711.68566528 43.12584114 712.34566528 43.12584114 713.02566528 43.12584114 C713.02566528 43.78584114 713.02566528 44.44584114 713.02566528 45.12584114 C714.34566528 45.12584114 715.66566528 45.12584114 717.02566528 45.12584114 C717.02566528 45.78584114 717.02566528 46.44584114 717.02566528 47.12584114 C717.68566528 47.12584114 718.34566528 47.12584114 719.02566528 47.12584114 C719.02566528 47.78584114 719.02566528 48.44584114 719.02566528 49.12584114 C719.68566528 49.12584114 720.34566528 49.12584114 721.02566528 49.12584114 C721.02566528 49.78584114 721.02566528 50.44584114 721.02566528 51.12584114 C722.34566528 51.12584114 723.66566528 51.12584114 725.02566528 51.12584114 C725.02566528 51.78584114 725.02566528 52.44584114 725.02566528 53.12584114 C725.68566528 53.12584114 726.34566528 53.12584114 727.02566528 53.12584114 C727.02566528 53.78584114 727.02566528 54.44584114 727.02566528 55.12584114 C727.68566528 55.12584114 728.34566528 55.12584114 729.02566528 55.12584114 C729.02566528 55.78584114 729.02566528 56.44584114 729.02566528 57.12584114 C729.68566528 57.12584114 730.34566528 57.12584114 731.02566528 57.12584114 C731.02566528 57.78584114 731.02566528 58.44584114 731.02566528 59.12584114 C731.68566528 59.12584114 732.34566528 59.12584114 733.02566528 59.12584114 C733.02566528 59.78584114 733.02566528 60.44584114 733.02566528 61.12584114 C734.34566528 61.12584114 735.66566528 61.12584114 737.02566528 61.12584114 C737.02566528 61.78584114 737.02566528 62.44584114 737.02566528 63.12584114 C737.68566528 63.12584114 738.34566528 63.12584114 739.02566528 63.12584114 C739.02566528 63.78584114 739.02566528 64.44584114 739.02566528 65.12584114 C739.68566528 65.12584114 740.34566528 65.12584114 741.02566528 65.12584114 C741.02566528 65.78584114 741.02566528 66.44584114 741.02566528 67.12584114 C741.68566528 67.12584114 742.34566528 67.12584114 743.02566528 67.12584114 C743.02566528 67.78584114 743.02566528 68.44584114 743.02566528 69.12584114 C743.68566528 69.12584114 744.34566528 69.12584114 745.02566528 69.12584114 C745.02566528 69.78584114 745.02566528 70.44584114 745.02566528 71.12584114 C745.68566528 71.12584114 746.34566528 71.12584114 747.02566528 71.12584114 C747.02566528 71.78584114 747.02566528 72.44584114 747.02566528 73.12584114 C747.68566528 73.12584114 748.34566528 73.12584114 749.02566528 73.12584114 C749.02566528 73.78584114 749.02566528 74.44584114 749.02566528 75.12584114 C749.68566528 75.12584114 750.34566528 75.12584114 751.02566528 75.12584114 C751.02566528 75.78584114 751.02566528 76.44584114 751.02566528 77.12584114 C751.68566528 77.12584114 752.34566528 77.12584114 753.02566528 77.12584114 C753.02566528 78.44584114 753.02566528 79.76584114 753.02566528 81.12584114 C753.68566528 81.12584114 754.34566528 81.12584114 755.02566528 81.12584114 C755.02566528 81.78584114 755.02566528 82.44584114 755.02566528 83.12584114 C755.68566528 83.12584114 756.34566528 83.12584114 757.02566528 83.12584114 C757.02566528 83.78584114 757.02566528 84.44584114 757.02566528 85.12584114 C757.68566528 85.12584114 758.34566528 85.12584114 759.02566528 85.12584114 C759.02566528 85.78584114 759.02566528 86.44584114 759.02566528 87.12584114 C759.68566528 87.12584114 760.34566528 87.12584114 761.02566528 87.12584114 C761.02566528 87.78584114 761.02566528 88.44584114 761.02566528 89.12584114 C761.68566528 89.12584114 762.34566528 89.12584114 763.02566528 89.12584114 C763.02566528 90.44584114 763.02566528 91.76584114 763.02566528 93.12584114 C763.68566528 93.12584114 764.34566528 93.12584114 765.02566528 93.12584114 C765.02566528 93.78584114 765.02566528 94.44584114 765.02566528 95.12584114 C765.68566528 95.12584114 766.34566528 95.12584114 767.02566528 95.12584114 C767.02566528 95.78584114 767.02566528 96.44584114 767.02566528 97.12584114 C767.68566528 97.12584114 768.34566528 97.12584114 769.02566528 97.12584114 C769.02566528 98.44584114 769.02566528 99.76584114 769.02566528 101.12584114 C769.68566528 101.12584114 770.34566528 101.12584114 771.02566528 101.12584114 C771.02566528 101.78584114 771.02566528 102.44584114 771.02566528 103.12584114 C771.68566528 103.12584114 772.34566528 103.12584114 773.02566528 103.12584114 C773.02566528 104.44584114 773.02566528 105.76584114 773.02566528 107.12584114 C773.68566528 107.12584114 774.34566528 107.12584114 775.02566528 107.12584114 C775.02566528 107.78584114 775.02566528 108.44584114 775.02566528 109.12584114 C775.68566528 109.12584114 776.34566528 109.12584114 777.02566528 109.12584114 C777.02566528 110.44584114 777.02566528 111.76584114 777.02566528 113.12584114 C777.68566528 113.12584114 778.34566528 113.12584114 779.02566528 113.12584114 C779.02566528 113.78584114 779.02566528 114.44584114 779.02566528 115.12584114 C779.68566528 115.12584114 780.34566528 115.12584114 781.02566528 115.12584114 C781.02566528 116.44584114 781.02566528 117.76584114 781.02566528 119.12584114 C781.68566528 119.12584114 782.34566528 119.12584114 783.02566528 119.12584114 C783.02566528 120.44584114 783.02566528 121.76584114 783.02566528 123.12584114 C783.68566528 123.12584114 784.34566528 123.12584114 785.02566528 123.12584114 C785.02566528 124.44584114 785.02566528 125.76584114 785.02566528 127.12584114 C785.68566528 127.12584114 786.34566528 127.12584114 787.02566528 127.12584114 C787.02566528 128.44584114 787.02566528 129.76584114 787.02566528 131.12584114 C787.68566528 131.12584114 788.34566528 131.12584114 789.02566528 131.12584114 C789.02566528 132.44584114 789.02566528 133.76584114 789.02566528 135.12584114 C789.68566528 135.12584114 790.34566528 135.12584114 791.02566528 135.12584114 C791.02566528 136.44584114 791.02566528 137.76584114 791.02566528 139.12584114 C791.68566528 139.12584114 792.34566528 139.12584114 793.02566528 139.12584114 C794.6292163 142.63360899 795.24603392 145.26938993 795.02566528 149.12584114 C795.68566528 149.12584114 796.34566528 149.12584114 797.02566528 149.12584114 C797.02566528 151.10584114 797.02566528 153.08584114 797.02566528 155.12584114 C797.68566528 155.12584114 798.34566528 155.12584114 799.02566528 155.12584114 C799.02566528 157.10584114 799.02566528 159.08584114 799.02566528 161.12584114 C799.68566528 161.12584114 800.34566528 161.12584114 801.02566528 161.12584114 C801.02566528 163.10584114 801.02566528 165.08584114 801.02566528 167.12584114 C801.68566528 167.12584114 802.34566528 167.12584114 803.02566528 167.12584114 C803.02566528 169.76584114 803.02566528 172.40584114 803.02566528 175.12584114 C803.68566528 175.12584114 804.34566528 175.12584114 805.02566528 175.12584114 C805.02566528 177.76584114 805.02566528 180.40584114 805.02566528 183.12584114 C805.68566528 183.12584114 806.34566528 183.12584114 807.02566528 183.12584114 C807.02566528 187.08584114 807.02566528 191.04584114 807.02566528 195.12584114 C807.68566528 195.12584114 808.34566528 195.12584114 809.02566528 195.12584114 C810.02159712 209.38273776 810.16729315 223.58406684 810.15264893 237.87169075 C810.15380305 240.34102813 810.15539253 242.81036534 810.15737617 245.27970219 C810.16066545 250.61973527 810.16089367 255.95975502 810.15832901 261.29978752 C810.15452556 269.24099487 810.15649109 277.18219377 810.15953732 285.12340108 C810.16478777 299.3115091 810.16435278 313.4996126 810.1614584 327.68772104 C810.158938 340.10434058 810.1582884 352.52095846 810.15948105 364.9375782 C810.15955743 365.76276402 810.15963382 366.58794983 810.15971252 367.43814128 C810.16002388 370.78824978 810.16034228 374.13835827 810.16067228 377.48846677 C810.16372793 408.88378545 810.16096314 440.27910127 810.15557539 471.67441951 C810.15083016 499.53746003 810.1512548 527.40049597 810.15603638 555.26353645 C810.16139667 586.60322737 810.16351118 617.94291576 810.16042411 649.28260708 C810.16010342 652.62643941 810.15979058 655.97027175 810.15948105 659.31410408 C810.15940197 660.13737745 810.15932289 660.96065081 810.15924142 661.80887186 C810.15810628 674.21448626 810.15942986 686.62009882 810.1619606 699.02571297 C810.16482531 713.13834028 810.16409343 727.25096238 810.15867986 741.36358905 C810.15575342 749.25168044 810.15553761 757.13976054 810.15932603 765.02785162 C810.16184731 770.93100062 810.15909352 776.83413977 810.15435146 782.73728764 C810.15324004 785.11525045 810.15378993 787.49321478 810.15622725 789.8711766 C810.16863907 802.99363871 809.94028518 816.03293572 809.02566528 829.12584114 C808.36566528 829.12584114 807.70566528 829.12584114 807.02566528 829.12584114 C807.02566528 833.08584114 807.02566528 837.04584114 807.02566528 841.12584114 C806.36566528 841.12584114 805.70566528 841.12584114 805.02566528 841.12584114 C805.02566528 843.76584114 805.02566528 846.40584114 805.02566528 849.12584114 C804.36566528 849.12584114 803.70566528 849.12584114 803.02566528 849.12584114 C803.02566528 851.76584114 803.02566528 854.40584114 803.02566528 857.12584114 C802.36566528 857.12584114 801.70566528 857.12584114 801.02566528 857.12584114 C801.02566528 859.10584114 801.02566528 861.08584114 801.02566528 863.12584114 C800.36566528 863.12584114 799.70566528 863.12584114 799.02566528 863.12584114 C799.02566528 865.10584114 799.02566528 867.08584114 799.02566528 869.12584114 C798.36566528 869.12584114 797.70566528 869.12584114 797.02566528 869.12584114 C797.02566528 871.10584114 797.02566528 873.08584114 797.02566528 875.12584114 C796.36566528 875.12584114 795.70566528 875.12584114 795.02566528 875.12584114 C795.08754028 876.20865364 795.08754028 876.20865364 795.15066528 877.31334114 C795.01645223 880.33313483 794.27395909 882.39519843 793.02566528 885.12584114 C792.36566528 885.12584114 791.70566528 885.12584114 791.02566528 885.12584114 C791.02566528 886.44584114 791.02566528 887.76584114 791.02566528 889.12584114 C790.36566528 889.12584114 789.70566528 889.12584114 789.02566528 889.12584114 C789.02566528 890.44584114 789.02566528 891.76584114 789.02566528 893.12584114 C788.36566528 893.12584114 787.70566528 893.12584114 787.02566528 893.12584114 C787.02566528 894.44584114 787.02566528 895.76584114 787.02566528 897.12584114 C786.36566528 897.12584114 785.70566528 897.12584114 785.02566528 897.12584114 C785.02566528 898.44584114 785.02566528 899.76584114 785.02566528 901.12584114 C784.36566528 901.12584114 783.70566528 901.12584114 783.02566528 901.12584114 C783.02566528 902.44584114 783.02566528 903.76584114 783.02566528 905.12584114 C782.36566528 905.12584114 781.70566528 905.12584114 781.02566528 905.12584114 C781.02566528 906.44584114 781.02566528 907.76584114 781.02566528 909.12584114 C780.36566528 909.12584114 779.70566528 909.12584114 779.02566528 909.12584114 C779.02566528 909.78584114 779.02566528 910.44584114 779.02566528 911.12584114 C778.36566528 911.12584114 777.70566528 911.12584114 777.02566528 911.12584114 C777.02566528 912.44584114 777.02566528 913.76584114 777.02566528 915.12584114 C776.36566528 915.12584114 775.70566528 915.12584114 775.02566528 915.12584114 C775.02566528 915.78584114 775.02566528 916.44584114 775.02566528 917.12584114 C774.36566528 917.12584114 773.70566528 917.12584114 773.02566528 917.12584114 C773.02566528 918.44584114 773.02566528 919.76584114 773.02566528 921.12584114 C772.36566528 921.12584114 771.70566528 921.12584114 771.02566528 921.12584114 C771.02566528 921.78584114 771.02566528 922.44584114 771.02566528 923.12584114 C770.36566528 923.12584114 769.70566528 923.12584114 769.02566528 923.12584114 C769.02566528 924.44584114 769.02566528 925.76584114 769.02566528 927.12584114 C768.36566528 927.12584114 767.70566528 927.12584114 767.02566528 927.12584114 C767.02566528 927.78584114 767.02566528 928.44584114 767.02566528 929.12584114 C766.36566528 929.12584114 765.70566528 929.12584114 765.02566528 929.12584114 C765.02566528 929.78584114 765.02566528 930.44584114 765.02566528 931.12584114 C764.36566528 931.12584114 763.70566528 931.12584114 763.02566528 931.12584114 C763.02566528 932.44584114 763.02566528 933.76584114 763.02566528 935.12584114 C762.36566528 935.12584114 761.70566528 935.12584114 761.02566528 935.12584114 C761.02566528 935.78584114 761.02566528 936.44584114 761.02566528 937.12584114 C760.36566528 937.12584114 759.70566528 937.12584114 759.02566528 937.12584114 C759.02566528 937.78584114 759.02566528 938.44584114 759.02566528 939.12584114 C758.36566528 939.12584114 757.70566528 939.12584114 757.02566528 939.12584114 C757.02566528 939.78584114 757.02566528 940.44584114 757.02566528 941.12584114 C756.36566528 941.12584114 755.70566528 941.12584114 755.02566528 941.12584114 C755.02566528 941.78584114 755.02566528 942.44584114 755.02566528 943.12584114 C754.36566528 943.12584114 753.70566528 943.12584114 753.02566528 943.12584114 C753.02566528 944.44584114 753.02566528 945.76584114 753.02566528 947.12584114 C752.36566528 947.12584114 751.70566528 947.12584114 751.02566528 947.12584114 C751.02566528 947.78584114 751.02566528 948.44584114 751.02566528 949.12584114 C750.36566528 949.12584114 749.70566528 949.12584114 749.02566528 949.12584114 C749.02566528 949.78584114 749.02566528 950.44584114 749.02566528 951.12584114 C748.36566528 951.12584114 747.70566528 951.12584114 747.02566528 951.12584114 C747.02566528 951.78584114 747.02566528 952.44584114 747.02566528 953.12584114 C746.36566528 953.12584114 745.70566528 953.12584114 745.02566528 953.12584114 C745.02566528 953.78584114 745.02566528 954.44584114 745.02566528 955.12584114 C744.36566528 955.12584114 743.70566528 955.12584114 743.02566528 955.12584114 C743.02566528 955.78584114 743.02566528 956.44584114 743.02566528 957.12584114 C742.36566528 957.12584114 741.70566528 957.12584114 741.02566528 957.12584114 C741.02566528 957.78584114 741.02566528 958.44584114 741.02566528 959.12584114 C740.36566528 959.12584114 739.70566528 959.12584114 739.02566528 959.12584114 C739.02566528 959.78584114 739.02566528 960.44584114 739.02566528 961.12584114 C738.36566528 961.12584114 737.70566528 961.12584114 737.02566528 961.12584114 C737.02566528 961.78584114 737.02566528 962.44584114 737.02566528 963.12584114 C735.70566528 963.12584114 734.38566528 963.12584114 733.02566528 963.12584114 C733.02566528 963.78584114 733.02566528 964.44584114 733.02566528 965.12584114 C732.36566528 965.12584114 731.70566528 965.12584114 731.02566528 965.12584114 C731.02566528 965.78584114 731.02566528 966.44584114 731.02566528 967.12584114 C730.36566528 967.12584114 729.70566528 967.12584114 729.02566528 967.12584114 C729.02566528 967.78584114 729.02566528 968.44584114 729.02566528 969.12584114 C728.36566528 969.12584114 727.70566528 969.12584114 727.02566528 969.12584114 C727.02566528 969.78584114 727.02566528 970.44584114 727.02566528 971.12584114 C726.36566528 971.12584114 725.70566528 971.12584114 725.02566528 971.12584114 C725.02566528 971.78584114 725.02566528 972.44584114 725.02566528 973.12584114 C723.70566528 973.12584114 722.38566528 973.12584114 721.02566528 973.12584114 C721.02566528 973.78584114 721.02566528 974.44584114 721.02566528 975.12584114 C720.36566528 975.12584114 719.70566528 975.12584114 719.02566528 975.12584114 C719.02566528 975.78584114 719.02566528 976.44584114 719.02566528 977.12584114 C718.36566528 977.12584114 717.70566528 977.12584114 717.02566528 977.12584114 C717.02566528 977.78584114 717.02566528 978.44584114 717.02566528 979.12584114 C715.70566528 979.12584114 714.38566528 979.12584114 713.02566528 979.12584114 C713.02566528 979.78584114 713.02566528 980.44584114 713.02566528 981.12584114 C712.36566528 981.12584114 711.70566528 981.12584114 711.02566528 981.12584114 C711.02566528 981.78584114 711.02566528 982.44584114 711.02566528 983.12584114 C709.04566528 983.78584114 707.06566528 984.44584114 705.02566528 985.12584114 C705.02566528 985.78584114 705.02566528 986.44584114 705.02566528 987.12584114 C703.70566528 987.12584114 702.38566528 987.12584114 701.02566528 987.12584114 C701.02566528 987.78584114 701.02566528 988.44584114 701.02566528 989.12584114 C700.36566528 989.12584114 699.70566528 989.12584114 699.02566528 989.12584114 C699.02566528 989.78584114 699.02566528 990.44584114 699.02566528 991.12584114 C697.70566528 991.12584114 696.38566528 991.12584114 695.02566528 991.12584114 C695.02566528 991.78584114 695.02566528 992.44584114 695.02566528 993.12584114 C693.04566528 993.78584114 691.06566528 994.44584114 689.02566528 995.12584114 C689.02566528 995.78584114 689.02566528 996.44584114 689.02566528 997.12584114 C685.51789744 998.72939216 682.88211649 999.34620978 679.02566528 999.12584114 C679.02566528 999.78584114 679.02566528 1000.44584114 679.02566528 1001.12584114 C677.70566528 1001.12584114 676.38566528 1001.12584114 675.02566528 1001.12584114 C675.02566528 1001.78584114 675.02566528 1002.44584114 675.02566528 1003.12584114 C673.70566528 1003.12584114 672.38566528 1003.12584114 671.02566528 1003.12584114 C671.02566528 1003.78584114 671.02566528 1004.44584114 671.02566528 1005.12584114 C669.70566528 1005.12584114 668.38566528 1005.12584114 667.02566528 1005.12584114 C667.02566528 1005.78584114 667.02566528 1006.44584114 667.02566528 1007.12584114 C665.70566528 1007.12584114 664.38566528 1007.12584114 663.02566528 1007.12584114 C663.02566528 1007.78584114 663.02566528 1008.44584114 663.02566528 1009.12584114 C661.04566528 1009.12584114 659.06566528 1009.12584114 657.02566528 1009.12584114 C657.02566528 1009.78584114 657.02566528 1010.44584114 657.02566528 1011.12584114 C655.70566528 1011.12584114 654.38566528 1011.12584114 653.02566528 1011.12584114 C653.02566528 1011.78584114 653.02566528 1012.44584114 653.02566528 1013.12584114 C651.04566528 1013.12584114 649.06566528 1013.12584114 647.02566528 1013.12584114 C647.02566528 1013.78584114 647.02566528 1014.44584114 647.02566528 1015.12584114 C645.04566528 1015.12584114 643.06566528 1015.12584114 641.02566528 1015.12584114 C641.02566528 1015.78584114 641.02566528 1016.44584114 641.02566528 1017.12584114 C638.38566528 1017.12584114 635.74566528 1017.12584114 633.02566528 1017.12584114 C633.02566528 1017.78584114 633.02566528 1018.44584114 633.02566528 1019.12584114 C629.21262636 1020.3174158 625.62467069 1021.24359685 621.65066528 1021.68834114 C618.22197158 1021.72377255 618.22197158 1021.72377255 617.02566528 1023.12584114 C610.13057588 1024.25590078 603.13896689 1024.26863213 596.17158508 1024.25168228 C595.11962767 1024.25313572 594.06767025 1024.25458916 592.98383534 1024.25608665 C589.46545601 1024.25973061 585.94712045 1024.25626766 582.42874146 1024.25282478 C579.87811098 1024.25397723 577.32748067 1024.25556559 574.7768507 1024.25755203 C569.23462556 1024.26085657 563.69241375 1024.26105811 558.15018845 1024.25850487 C549.90862453 1024.25471841 541.66706882 1024.2566582 533.42550495 1024.25971317 C518.70506719 1024.2649767 503.98463377 1024.2645234 489.26419559 1024.26163426 C476.38206255 1024.25911835 463.49993109 1024.25846217 450.61779785 1024.25965691 C449.76317419 1024.25973329 448.90855052 1024.25980968 448.02802917 1024.25988838 C444.55880128 1024.26019972 441.0895734 1024.26051812 437.62034551 1024.26084814 C405.0787637 1024.26390689 372.53718464 1024.26113407 339.99560325 1024.25575124 C311.08667713 1024.25100567 282.17775542 1024.2514303 253.26882935 1024.25621223 C220.78662327 1024.26156729 188.30441963 1024.26368996 155.82221317 1024.26059997 C152.35931969 1024.26027926 148.8964262 1024.25996641 145.43353271 1024.25965691 C144.58088495 1024.25957783 143.72823719 1024.25949875 142.84975161 1024.25941728 C129.97596492 1024.25827998 117.10218 1024.25960976 104.22839355 1024.26213646 C89.58979919 1024.26499522 74.95120985 1024.26428194 60.31261611 1024.25885572 C52.12072092 1024.25591929 43.9288366 1024.25572798 35.73694169 1024.25950189 C29.62151676 1024.26200841 23.50610594 1024.25929002 17.39068186 1024.25452732 C14.91571845 1024.25340906 12.44075359 1024.25398126 9.96579111 1024.2564031 C6.60375514 1024.25944096 3.24177836 1024.25632745 -0.12025452 1024.25168228 C-1.08261139 1024.25402345 -2.04496826 1024.25636461 -3.03648746 1024.25877672 C-19.88797648 1024.21219938 -19.88797648 1024.21219938 -21.97433472 1022.12584114 C-23.90327921 1021.89303749 -25.83250918 1021.6622458 -27.76339722 1021.44615364 C-30.95158654 1020.98426049 -33.90214814 1020.08589945 -36.97433472 1019.12584114 C-36.97433472 1018.46584114 -36.97433472 1017.80584114 -36.97433472 1017.12584114 C-39.61433472 1017.12584114 -42.25433472 1017.12584114 -44.97433472 1017.12584114 C-44.97433472 1016.46584114 -44.97433472 1015.80584114 -44.97433472 1015.12584114 C-46.95433472 1015.12584114 -48.93433472 1015.12584114 -50.97433472 1015.12584114 C-50.97433472 1014.46584114 -50.97433472 1013.80584114 -50.97433472 1013.12584114 C-52.95433472 1013.12584114 -54.93433472 1013.12584114 -56.97433472 1013.12584114 C-56.97433472 1012.46584114 -56.97433472 1011.80584114 -56.97433472 1011.12584114 C-58.29433472 1011.12584114 -59.61433472 1011.12584114 -60.97433472 1011.12584114 C-60.97433472 1010.46584114 -60.97433472 1009.80584114 -60.97433472 1009.12584114 C-62.95433472 1009.12584114 -64.93433472 1009.12584114 -66.97433472 1009.12584114 C-66.97433472 1008.46584114 -66.97433472 1007.80584114 -66.97433472 1007.12584114 C-68.29433472 1007.12584114 -69.61433472 1007.12584114 -70.97433472 1007.12584114 C-70.97433472 1006.46584114 -70.97433472 1005.80584114 -70.97433472 1005.12584114 C-72.29433472 1005.12584114 -73.61433472 1005.12584114 -74.97433472 1005.12584114 C-74.97433472 1004.46584114 -74.97433472 1003.80584114 -74.97433472 1003.12584114 C-76.29433472 1003.12584114 -77.61433472 1003.12584114 -78.97433472 1003.12584114 C-78.97433472 1002.46584114 -78.97433472 1001.80584114 -78.97433472 1001.12584114 C-80.29433472 1001.12584114 -81.61433472 1001.12584114 -82.97433472 1001.12584114 C-82.97433472 1000.46584114 -82.97433472 999.80584114 -82.97433472 999.12584114 C-83.69620972 999.16709114 -84.41808472 999.20834114 -85.16183472 999.25084114 C-88.18162841 999.11662809 -90.24369201 998.37413495 -92.97433472 997.12584114 C-92.97433472 996.46584114 -92.97433472 995.80584114 -92.97433472 995.12584114 C-94.95433472 994.46584114 -96.93433472 993.80584114 -98.97433472 993.12584114 C-98.97433472 992.46584114 -98.97433472 991.80584114 -98.97433472 991.12584114 C-100.29433472 991.12584114 -101.61433472 991.12584114 -102.97433472 991.12584114 C-102.97433472 990.46584114 -102.97433472 989.80584114 -102.97433472 989.12584114 C-103.63433472 989.12584114 -104.29433472 989.12584114 -104.97433472 989.12584114 C-104.97433472 988.46584114 -104.97433472 987.80584114 -104.97433472 987.12584114 C-106.29433472 987.12584114 -107.61433472 987.12584114 -108.97433472 987.12584114 C-108.97433472 986.46584114 -108.97433472 985.80584114 -108.97433472 985.12584114 C-110.95433472 984.46584114 -112.93433472 983.80584114 -114.97433472 983.12584114 C-114.97433472 982.46584114 -114.97433472 981.80584114 -114.97433472 981.12584114 C-115.63433472 981.12584114 -116.29433472 981.12584114 -116.97433472 981.12584114 C-116.97433472 980.46584114 -116.97433472 979.80584114 -116.97433472 979.12584114 C-118.29433472 979.12584114 -119.61433472 979.12584114 -120.97433472 979.12584114 C-120.97433472 978.46584114 -120.97433472 977.80584114 -120.97433472 977.12584114 C-121.63433472 977.12584114 -122.29433472 977.12584114 -122.97433472 977.12584114 C-122.97433472 976.46584114 -122.97433472 975.80584114 -122.97433472 975.12584114 C-123.63433472 975.12584114 -124.29433472 975.12584114 -124.97433472 975.12584114 C-124.97433472 974.46584114 -124.97433472 973.80584114 -124.97433472 973.12584114 C-126.29433472 973.12584114 -127.61433472 973.12584114 -128.97433472 973.12584114 C-128.97433472 972.46584114 -128.97433472 971.80584114 -128.97433472 971.12584114 C-129.63433472 971.12584114 -130.29433472 971.12584114 -130.97433472 971.12584114 C-130.97433472 970.46584114 -130.97433472 969.80584114 -130.97433472 969.12584114 C-131.63433472 969.12584114 -132.29433472 969.12584114 -132.97433472 969.12584114 C-132.97433472 968.46584114 -132.97433472 967.80584114 -132.97433472 967.12584114 C-133.63433472 967.12584114 -134.29433472 967.12584114 -134.97433472 967.12584114 C-134.97433472 966.46584114 -134.97433472 965.80584114 -134.97433472 965.12584114 C-135.63433472 965.12584114 -136.29433472 965.12584114 -136.97433472 965.12584114 C-136.97433472 964.46584114 -136.97433472 963.80584114 -136.97433472 963.12584114 C-138.29433472 963.12584114 -139.61433472 963.12584114 -140.97433472 963.12584114 C-140.97433472 962.46584114 -140.97433472 961.80584114 -140.97433472 961.12584114 C-141.63433472 961.12584114 -142.29433472 961.12584114 -142.97433472 961.12584114 C-142.97433472 960.46584114 -142.97433472 959.80584114 -142.97433472 959.12584114 C-143.63433472 959.12584114 -144.29433472 959.12584114 -144.97433472 959.12584114 C-144.97433472 958.46584114 -144.97433472 957.80584114 -144.97433472 957.12584114 C-145.63433472 957.12584114 -146.29433472 957.12584114 -146.97433472 957.12584114 C-146.97433472 956.46584114 -146.97433472 955.80584114 -146.97433472 955.12584114 C-147.63433472 955.12584114 -148.29433472 955.12584114 -148.97433472 955.12584114 C-148.97433472 954.46584114 -148.97433472 953.80584114 -148.97433472 953.12584114 C-149.63433472 953.12584114 -150.29433472 953.12584114 -150.97433472 953.12584114 C-150.97433472 952.46584114 -150.97433472 951.80584114 -150.97433472 951.12584114 C-151.63433472 951.12584114 -152.29433472 951.12584114 -152.97433472 951.12584114 C-152.97433472 950.46584114 -152.97433472 949.80584114 -152.97433472 949.12584114 C-153.63433472 949.12584114 -154.29433472 949.12584114 -154.97433472 949.12584114 C-154.97433472 948.46584114 -154.97433472 947.80584114 -154.97433472 947.12584114 C-155.63433472 947.12584114 -156.29433472 947.12584114 -156.97433472 947.12584114 C-156.97433472 945.80584114 -156.97433472 944.48584114 -156.97433472 943.12584114 C-157.63433472 943.12584114 -158.29433472 943.12584114 -158.97433472 943.12584114 C-158.97433472 942.46584114 -158.97433472 941.80584114 -158.97433472 941.12584114 C-159.63433472 941.12584114 -160.29433472 941.12584114 -160.97433472 941.12584114 C-160.97433472 940.46584114 -160.97433472 939.80584114 -160.97433472 939.12584114 C-161.63433472 939.12584114 -162.29433472 939.12584114 -162.97433472 939.12584114 C-162.97433472 938.46584114 -162.97433472 937.80584114 -162.97433472 937.12584114 C-163.63433472 937.12584114 -164.29433472 937.12584114 -164.97433472 937.12584114 C-164.97433472 936.46584114 -164.97433472 935.80584114 -164.97433472 935.12584114 C-165.63433472 935.12584114 -166.29433472 935.12584114 -166.97433472 935.12584114 C-166.97433472 933.80584114 -166.97433472 932.48584114 -166.97433472 931.12584114 C-167.63433472 931.12584114 -168.29433472 931.12584114 -168.97433472 931.12584114 C-168.97433472 930.46584114 -168.97433472 929.80584114 -168.97433472 929.12584114 C-169.63433472 929.12584114 -170.29433472 929.12584114 -170.97433472 929.12584114 C-170.97433472 928.46584114 -170.97433472 927.80584114 -170.97433472 927.12584114 C-171.63433472 927.12584114 -172.29433472 927.12584114 -172.97433472 927.12584114 C-172.97433472 925.80584114 -172.97433472 924.48584114 -172.97433472 923.12584114 C-173.63433472 923.12584114 -174.29433472 923.12584114 -174.97433472 923.12584114 C-174.97433472 922.46584114 -174.97433472 921.80584114 -174.97433472 921.12584114 C-175.63433472 921.12584114 -176.29433472 921.12584114 -176.97433472 921.12584114 C-176.97433472 919.80584114 -176.97433472 918.48584114 -176.97433472 917.12584114 C-177.63433472 917.12584114 -178.29433472 917.12584114 -178.97433472 917.12584114 C-178.97433472 916.46584114 -178.97433472 915.80584114 -178.97433472 915.12584114 C-179.63433472 915.12584114 -180.29433472 915.12584114 -180.97433472 915.12584114 C-180.97433472 913.80584114 -180.97433472 912.48584114 -180.97433472 911.12584114 C-181.63433472 911.12584114 -182.29433472 911.12584114 -182.97433472 911.12584114 C-182.97433472 910.46584114 -182.97433472 909.80584114 -182.97433472 909.12584114 C-183.63433472 909.12584114 -184.29433472 909.12584114 -184.97433472 909.12584114 C-184.97433472 907.80584114 -184.97433472 906.48584114 -184.97433472 905.12584114 C-185.63433472 905.12584114 -186.29433472 905.12584114 -186.97433472 905.12584114 C-186.97433472 903.80584114 -186.97433472 902.48584114 -186.97433472 901.12584114 C-187.63433472 901.12584114 -188.29433472 901.12584114 -188.97433472 901.12584114 C-188.97433472 899.80584114 -188.97433472 898.48584114 -188.97433472 897.12584114 C-189.63433472 897.12584114 -190.29433472 897.12584114 -190.97433472 897.12584114 C-190.97433472 895.80584114 -190.97433472 894.48584114 -190.97433472 893.12584114 C-191.63433472 893.12584114 -192.29433472 893.12584114 -192.97433472 893.12584114 C-192.97433472 891.80584114 -192.97433472 890.48584114 -192.97433472 889.12584114 C-193.63433472 889.12584114 -194.29433472 889.12584114 -194.97433472 889.12584114 C-194.97433472 887.80584114 -194.97433472 886.48584114 -194.97433472 885.12584114 C-195.63433472 885.12584114 -196.29433472 885.12584114 -196.97433472 885.12584114 C-198.57788573 881.6180733 -199.19470336 878.98229235 -198.97433472 875.12584114 C-199.63433472 875.12584114 -200.29433472 875.12584114 -200.97433472 875.12584114 C-200.97433472 873.14584114 -200.97433472 871.16584114 -200.97433472 869.12584114 C-201.63433472 869.12584114 -202.29433472 869.12584114 -202.97433472 869.12584114 C-202.97433472 867.14584114 -202.97433472 865.16584114 -202.97433472 863.12584114 C-203.63433472 863.12584114 -204.29433472 863.12584114 -204.97433472 863.12584114 C-204.97433472 861.14584114 -204.97433472 859.16584114 -204.97433472 857.12584114 C-205.63433472 857.12584114 -206.29433472 857.12584114 -206.97433472 857.12584114 C-206.97433472 854.48584114 -206.97433472 851.84584114 -206.97433472 849.12584114 C-207.63433472 849.12584114 -208.29433472 849.12584114 -208.97433472 849.12584114 C-208.97433472 846.48584114 -208.97433472 843.84584114 -208.97433472 841.12584114 C-209.63433472 841.12584114 -210.29433472 841.12584114 -210.97433472 841.12584114 C-210.97433472 837.16584114 -210.97433472 833.20584114 -210.97433472 829.12584114 C-211.63433472 829.12584114 -212.29433472 829.12584114 -212.97433472 829.12584114 C-213.97026655 814.86894452 -214.11596258 800.66761545 -214.10131836 786.37999153 C-214.10247248 783.91065415 -214.10406196 781.44131695 -214.1060456 778.97198009 C-214.10933488 773.63194701 -214.10956311 768.29192727 -214.10699844 762.95189476 C-214.10319499 755.01068741 -214.10516052 747.06948851 -214.10820675 739.12828121 C-214.1134572 724.94017318 -214.11302221 710.75206968 -214.11012784 696.56396124 C-214.10760744 684.1473417 -214.10695784 671.73072382 -214.10815048 659.31410408 C-214.10822687 658.48891826 -214.10830325 657.66373245 -214.10838195 656.813541 C-214.10869332 653.46343251 -214.10901172 650.11332401 -214.10934172 646.76321552 C-214.11239737 615.36789683 -214.10963257 583.97258102 -214.10424482 552.57726277 C-214.09949959 524.71422226 -214.09992423 496.85118631 -214.10470581 468.98814583 C-214.1100661 437.64845491 -214.11218062 406.30876652 -214.10909355 374.9690752 C-214.10877285 371.62524287 -214.10846001 368.28141054 -214.10815048 364.9375782 C-214.1080714 364.11430483 -214.10799233 363.29103147 -214.10791085 362.44281042 C-214.10677572 350.03719602 -214.10809929 337.63158346 -214.11063004 325.22596931 C-214.11349474 311.113342 -214.11276287 297.0007199 -214.10734929 282.88809323 C-214.10442285 275.00000185 -214.10420704 267.11192174 -214.10799547 259.22383066 C-214.11051674 253.32068166 -214.10776295 247.41754251 -214.10302089 241.51439464 C-214.10190948 239.13643183 -214.10245937 236.7584675 -214.10489668 234.38050568 C-214.1173085 221.25804358 -213.88895462 208.21874656 -212.97433472 195.12584114 C-212.31433472 195.12584114 -211.65433472 195.12584114 -210.97433472 195.12584114 C-210.97433472 191.16584114 -210.97433472 187.20584114 -210.97433472 183.12584114 C-210.31433472 183.12584114 -209.65433472 183.12584114 -208.97433472 183.12584114 C-208.97433472 180.48584114 -208.97433472 177.84584114 -208.97433472 175.12584114 C-208.31433472 175.12584114 -207.65433472 175.12584114 -206.97433472 175.12584114 C-206.97433472 172.48584114 -206.97433472 169.84584114 -206.97433472 167.12584114 C-206.31433472 167.12584114 -205.65433472 167.12584114 -204.97433472 167.12584114 C-204.97433472 165.14584114 -204.97433472 163.16584114 -204.97433472 161.12584114 C-204.31433472 161.12584114 -203.65433472 161.12584114 -202.97433472 161.12584114 C-202.97433472 159.14584114 -202.97433472 157.16584114 -202.97433472 155.12584114 C-202.31433472 155.12584114 -201.65433472 155.12584114 -200.97433472 155.12584114 C-200.97433472 153.14584114 -200.97433472 151.16584114 -200.97433472 149.12584114 C-200.31433472 149.12584114 -199.65433472 149.12584114 -198.97433472 149.12584114 C-199.01558472 148.40396614 -199.05683472 147.68209114 -199.09933472 146.93834114 C-198.96512166 143.91854745 -198.22262853 141.85648385 -196.97433472 139.12584114 C-196.31433472 139.12584114 -195.65433472 139.12584114 -194.97433472 139.12584114 C-194.97433472 137.80584114 -194.97433472 136.48584114 -194.97433472 135.12584114 C-194.31433472 135.12584114 -193.65433472 135.12584114 -192.97433472 135.12584114 C-192.97433472 133.80584114 -192.97433472 132.48584114 -192.97433472 131.12584114 C-192.31433472 131.12584114 -191.65433472 131.12584114 -190.97433472 131.12584114 C-190.97433472 129.80584114 -190.97433472 128.48584114 -190.97433472 127.12584114 C-190.31433472 127.12584114 -189.65433472 127.12584114 -188.97433472 127.12584114 C-188.97433472 125.80584114 -188.97433472 124.48584114 -188.97433472 123.12584114 C-188.31433472 123.12584114 -187.65433472 123.12584114 -186.97433472 123.12584114 C-186.97433472 121.80584114 -186.97433472 120.48584114 -186.97433472 119.12584114 C-186.31433472 119.12584114 -185.65433472 119.12584114 -184.97433472 119.12584114 C-184.97433472 117.80584114 -184.97433472 116.48584114 -184.97433472 115.12584114 C-184.31433472 115.12584114 -183.65433472 115.12584114 -182.97433472 115.12584114 C-182.97433472 114.46584114 -182.97433472 113.80584114 -182.97433472 113.12584114 C-182.31433472 113.12584114 -181.65433472 113.12584114 -180.97433472 113.12584114 C-180.97433472 111.80584114 -180.97433472 110.48584114 -180.97433472 109.12584114 C-180.31433472 109.12584114 -179.65433472 109.12584114 -178.97433472 109.12584114 C-178.97433472 108.46584114 -178.97433472 107.80584114 -178.97433472 107.12584114 C-178.31433472 107.12584114 -177.65433472 107.12584114 -176.97433472 107.12584114 C-176.97433472 105.80584114 -176.97433472 104.48584114 -176.97433472 103.12584114 C-176.31433472 103.12584114 -175.65433472 103.12584114 -174.97433472 103.12584114 C-174.97433472 102.46584114 -174.97433472 101.80584114 -174.97433472 101.12584114 C-174.31433472 101.12584114 -173.65433472 101.12584114 -172.97433472 101.12584114 C-172.97433472 99.80584114 -172.97433472 98.48584114 -172.97433472 97.12584114 C-172.31433472 97.12584114 -171.65433472 97.12584114 -170.97433472 97.12584114 C-170.97433472 96.46584114 -170.97433472 95.80584114 -170.97433472 95.12584114 C-170.31433472 95.12584114 -169.65433472 95.12584114 -168.97433472 95.12584114 C-168.97433472 94.46584114 -168.97433472 93.80584114 -168.97433472 93.12584114 C-168.31433472 93.12584114 -167.65433472 93.12584114 -166.97433472 93.12584114 C-166.97433472 91.80584114 -166.97433472 90.48584114 -166.97433472 89.12584114 C-166.31433472 89.12584114 -165.65433472 89.12584114 -164.97433472 89.12584114 C-164.97433472 88.46584114 -164.97433472 87.80584114 -164.97433472 87.12584114 C-164.31433472 87.12584114 -163.65433472 87.12584114 -162.97433472 87.12584114 C-162.97433472 86.46584114 -162.97433472 85.80584114 -162.97433472 85.12584114 C-162.31433472 85.12584114 -161.65433472 85.12584114 -160.97433472 85.12584114 C-160.97433472 84.46584114 -160.97433472 83.80584114 -160.97433472 83.12584114 C-160.31433472 83.12584114 -159.65433472 83.12584114 -158.97433472 83.12584114 C-158.97433472 82.46584114 -158.97433472 81.80584114 -158.97433472 81.12584114 C-158.31433472 81.12584114 -157.65433472 81.12584114 -156.97433472 81.12584114 C-156.97433472 79.80584114 -156.97433472 78.48584114 -156.97433472 77.12584114 C-156.31433472 77.12584114 -155.65433472 77.12584114 -154.97433472 77.12584114 C-154.97433472 76.46584114 -154.97433472 75.80584114 -154.97433472 75.12584114 C-154.31433472 75.12584114 -153.65433472 75.12584114 -152.97433472 75.12584114 C-152.97433472 74.46584114 -152.97433472 73.80584114 -152.97433472 73.12584114 C-152.31433472 73.12584114 -151.65433472 73.12584114 -150.97433472 73.12584114 C-150.97433472 72.46584114 -150.97433472 71.80584114 -150.97433472 71.12584114 C-150.31433472 71.12584114 -149.65433472 71.12584114 -148.97433472 71.12584114 C-148.97433472 70.46584114 -148.97433472 69.80584114 -148.97433472 69.12584114 C-148.31433472 69.12584114 -147.65433472 69.12584114 -146.97433472 69.12584114 C-146.97433472 68.46584114 -146.97433472 67.80584114 -146.97433472 67.12584114 C-146.31433472 67.12584114 -145.65433472 67.12584114 -144.97433472 67.12584114 C-144.97433472 66.46584114 -144.97433472 65.80584114 -144.97433472 65.12584114 C-144.31433472 65.12584114 -143.65433472 65.12584114 -142.97433472 65.12584114 C-142.97433472 64.46584114 -142.97433472 63.80584114 -142.97433472 63.12584114 C-142.31433472 63.12584114 -141.65433472 63.12584114 -140.97433472 63.12584114 C-140.97433472 62.46584114 -140.97433472 61.80584114 -140.97433472 61.12584114 C-139.65433472 61.12584114 -138.33433472 61.12584114 -136.97433472 61.12584114 C-136.97433472 60.46584114 -136.97433472 59.80584114 -136.97433472 59.12584114 C-136.31433472 59.12584114 -135.65433472 59.12584114 -134.97433472 59.12584114 C-134.97433472 58.46584114 -134.97433472 57.80584114 -134.97433472 57.12584114 C-134.31433472 57.12584114 -133.65433472 57.12584114 -132.97433472 57.12584114 C-132.97433472 56.46584114 -132.97433472 55.80584114 -132.97433472 55.12584114 C-132.31433472 55.12584114 -131.65433472 55.12584114 -130.97433472 55.12584114 C-130.97433472 54.46584114 -130.97433472 53.80584114 -130.97433472 53.12584114 C-130.31433472 53.12584114 -129.65433472 53.12584114 -128.97433472 53.12584114 C-128.97433472 52.46584114 -128.97433472 51.80584114 -128.97433472 51.12584114 C-127.65433472 51.12584114 -126.33433472 51.12584114 -124.97433472 51.12584114 C-124.97433472 50.46584114 -124.97433472 49.80584114 -124.97433472 49.12584114 C-124.31433472 49.12584114 -123.65433472 49.12584114 -122.97433472 49.12584114 C-122.97433472 48.46584114 -122.97433472 47.80584114 -122.97433472 47.12584114 C-122.31433472 47.12584114 -121.65433472 47.12584114 -120.97433472 47.12584114 C-120.97433472 46.46584114 -120.97433472 45.80584114 -120.97433472 45.12584114 C-119.65433472 45.12584114 -118.33433472 45.12584114 -116.97433472 45.12584114 C-116.97433472 44.46584114 -116.97433472 43.80584114 -116.97433472 43.12584114 C-116.31433472 43.12584114 -115.65433472 43.12584114 -114.97433472 43.12584114 C-114.97433472 42.46584114 -114.97433472 41.80584114 -114.97433472 41.12584114 C-112.99433472 40.46584114 -111.01433472 39.80584114 -108.97433472 39.12584114 C-108.97433472 38.46584114 -108.97433472 37.80584114 -108.97433472 37.12584114 C-107.65433472 37.12584114 -106.33433472 37.12584114 -104.97433472 37.12584114 C-104.97433472 36.46584114 -104.97433472 35.80584114 -104.97433472 35.12584114 C-104.31433472 35.12584114 -103.65433472 35.12584114 -102.97433472 35.12584114 C-102.97433472 34.46584114 -102.97433472 33.80584114 -102.97433472 33.12584114 C-101.65433472 33.12584114 -100.33433472 33.12584114 -98.97433472 33.12584114 C-98.97433472 32.46584114 -98.97433472 31.80584114 -98.97433472 31.12584114 C-96.99433472 30.46584114 -95.01433472 29.80584114 -92.97433472 29.12584114 C-92.97433472 28.46584114 -92.97433472 27.80584114 -92.97433472 27.12584114 C-89.46656687 25.52229013 -86.83078593 24.9054725 -82.97433472 25.12584114 C-82.97433472 24.46584114 -82.97433472 23.80584114 -82.97433472 23.12584114 C-81.65433472 23.12584114 -80.33433472 23.12584114 -78.97433472 23.12584114 C-78.97433472 22.46584114 -78.97433472 21.80584114 -78.97433472 21.12584114 C-77.65433472 21.12584114 -76.33433472 21.12584114 -74.97433472 21.12584114 C-74.97433472 20.46584114 -74.97433472 19.80584114 -74.97433472 19.12584114 C-73.65433472 19.12584114 -72.33433472 19.12584114 -70.97433472 19.12584114 C-70.97433472 18.46584114 -70.97433472 17.80584114 -70.97433472 17.12584114 C-69.65433472 17.12584114 -68.33433472 17.12584114 -66.97433472 17.12584114 C-66.97433472 16.46584114 -66.97433472 15.80584114 -66.97433472 15.12584114 C-64.99433472 15.12584114 -63.01433472 15.12584114 -60.97433472 15.12584114 C-60.97433472 14.46584114 -60.97433472 13.80584114 -60.97433472 13.12584114 C-59.65433472 13.12584114 -58.33433472 13.12584114 -56.97433472 13.12584114 C-56.97433472 12.46584114 -56.97433472 11.80584114 -56.97433472 11.12584114 C-54.99433472 11.12584114 -53.01433472 11.12584114 -50.97433472 11.12584114 C-50.97433472 10.46584114 -50.97433472 9.80584114 -50.97433472 9.12584114 C-48.99433472 9.12584114 -47.01433472 9.12584114 -44.97433472 9.12584114 C-44.97433472 8.46584114 -44.97433472 7.80584114 -44.97433472 7.12584114 C-42.33433472 7.12584114 -39.69433472 7.12584114 -36.97433472 7.12584114 C-36.97433472 6.46584114 -36.97433472 5.80584114 -36.97433472 5.12584114 C-31.73048383 3.37789084 -27.50111205 2.93191913 -21.97433472 3.12584114 C-21.97433472 2.46584114 -21.97433472 1.80584114 -21.97433472 1.12584114 C-14.62750792 0.34649591 -7.38570558 -0.01802207 0 0 Z " fill="#FDFEFE" transform="translate(213.97433471679688,-0.1258411407470703)"/>
<path d="M0 0 C4.43432515 0.00261114 8.86864871 0.0001626 13.30297399 -0.00138617 C20.73742101 -0.00318342 28.17185797 -0.00086722 35.60630345 0.00395441 C44.08314723 0.00939018 52.55996691 0.00762926 61.0368101 0.00212801 C68.44106327 -0.00247656 75.84530937 -0.00301849 83.24956352 -0.00043333 C87.61646093 0.00109015 91.9833472 0.0014364 96.35024381 -0.00196981 C114.37294127 -0.01405701 132.38243401 0.11504636 150.39976048 0.58012629 C151.17571439 0.5995383 151.95166829 0.61895032 152.75113595 0.63895059 C161.97145824 0.87533933 171.16106528 1.28051471 180.36292481 1.91445971 C186.01111608 2.25782645 191.6619257 2.35025849 197.31852269 2.46562433 C215.89603106 2.86436218 234.38715417 4.16887662 252.90917516 5.60869074 C256.6502178 5.89679734 260.38921003 6.16732572 264.13608861 6.36723566 C273.4586418 6.86866511 282.61385242 7.86616114 291.85337377 9.1812005 C294.17490076 9.51043257 296.49793473 9.82684487 298.82139134 10.142138 C326.2430065 13.93577638 350.59879751 22.36159446 368.97959447 44.1343255 C376.74234521 54.42956299 382.77613481 65.77778976 386.04209447 78.2593255 C386.29394506 79.21178156 386.54579564 80.16423761 386.80527806 81.14555597 C389.5899277 92.03682779 391.46795277 103.00101404 392.97959447 114.1343255 C393.14701146 115.36699152 393.31442845 116.59965754 393.48691869 117.86967707 C398.99486031 159.81278179 400.2594196 201.86785994 400.28966832 244.12091303 C400.29204974 246.9560794 400.29736149 249.79122933 400.30295873 252.62639093 C400.53769908 414.799392 400.53769908 414.799392 360.85459447 456.6968255 C343.6929615 473.45604777 321.68461755 479.94846685 298.36631322 482.58354425 C297.24425984 482.71123194 296.12220647 482.83891962 294.96615148 482.97047663 C281.53936246 484.45765793 268.08067072 485.55845358 254.61315084 486.59903193 C252.50961618 486.76183923 250.40623564 486.92653949 248.30286717 487.09147882 C229.49234232 488.56083816 210.72238792 489.74314082 191.85068822 489.9937005 C187.29829879 490.05519345 182.79617465 490.26747584 178.25693822 490.61479425 C166.55644397 491.44332019 154.8296507 491.52337498 143.10459447 491.6968255 C142.42869897 491.7071657 141.75280347 491.71750589 141.05642629 491.72815943 C78.19831007 492.68693085 15.27486987 492.67749147 -47.58290553 491.6968255 C-48.87495906 491.67726801 -50.16701259 491.65771051 -51.49821925 491.63756037 C-63.12025149 491.45345758 -74.70302601 491.18684247 -86.2984817 490.36845636 C-94.06183438 489.8800959 -101.84301874 489.76481208 -109.61855006 489.58207941 C-111.80207128 489.52969028 -113.98544361 489.47278712 -116.16884303 489.4155755 C-117.43905299 489.38528254 -118.70926295 489.35498957 -120.01796412 489.32377863 C-122.97048556 489.21770418 -125.88260062 488.95833361 -128.81996608 488.64311457 C-134.23641339 488.07265031 -139.63769966 487.8860446 -145.07899928 487.7124505 C-156.7407908 487.27721213 -168.31980381 486.36182608 -179.92982936 485.19731379 C-183.08444011 484.88417318 -186.2406012 484.59289079 -189.39735866 484.30229425 C-222.61900261 481.09981459 -251.58622071 473.49864422 -274.02040553 447.1343255 C-277.02131617 442.96220518 -279.58041029 438.65404823 -282.02040553 434.1343255 C-282.58630397 433.08760675 -283.15220241 432.040888 -283.73524928 430.9624505 C-288.40168357 421.97186318 -291.23910944 413.22132736 -292.95790553 403.2593255 C-293.12338893 402.32024347 -293.28887233 401.38116144 -293.45937037 400.41362238 C-297.89316837 374.82212483 -300.69682291 349.42608139 -302.08290553 323.5093255 C-302.12328944 322.75654322 -302.16367335 322.00376093 -302.20528102 321.22816706 C-302.50631271 315.53146443 -302.77233379 309.83356842 -303.02040553 304.1343255 C-303.06524074 303.11084009 -303.11007594 302.08735468 -303.15626979 301.03285456 C-303.93606734 282.74944747 -304.18634471 264.49562773 -304.14540553 246.1968255 C-304.14312205 244.85204816 -304.14088469 243.50727073 -304.13869166 242.16249323 C-304.12225898 233.15295154 -304.08095146 224.14368958 -304.02040553 215.1343255 C-304.01416163 214.16551447 -304.00791774 213.19670343 -304.00148463 212.19853449 C-303.73197737 174.84860393 -301.48236596 136.95158381 -295.02040553 100.1343255 C-294.86072291 99.20120539 -294.7010403 98.26808527 -294.53651881 97.30668879 C-289.74024725 69.76099514 -279.14078034 44.76509744 -255.81337428 27.80229425 C-221.79868801 6.29119278 -177.10631009 5.58459269 -137.83290553 4.345263 C-134.66124509 4.23323315 -131.53698716 4.00110609 -128.38295436 3.65239191 C-123.06111633 3.1070008 -117.75161021 2.83892249 -112.40712428 2.6343255 C-111.39922343 2.59372004 -110.39132258 2.55311457 -109.35287929 2.51127863 C-107.21403605 2.42584196 -105.07513326 2.34188454 -102.93617702 2.2593255 C-99.80978441 2.1382703 -96.68365435 2.01173006 -93.55751491 1.8843255 C-62.36994128 0.63771933 -31.2112861 -0.02432605 0 0 Z " fill="#FE0032" transform="translate(464.02040553092957,265.865674495697)"/>
<path d="M0 0 C3.86349391 1.54539756 7.12420698 3.11206551 10.69921875 5.16796875 C11.81248535 5.80613525 12.92575195 6.44430176 14.07275391 7.10180664 C15.27771682 7.79695534 16.4826309 8.4921887 17.6875 9.1875 C18.94434799 9.90968618 20.20134912 10.6316059 21.45849609 11.35327148 C24.68637148 13.20743067 27.91189349 15.06563953 31.13653564 16.92541504 C33.99525204 18.57392183 36.85518454 20.22031688 39.71484375 21.8671875 C45.07278109 24.95479176 50.42792501 28.04720933 55.78222656 31.14111328 C61.18670645 34.26324605 66.59347412 37.38141204 72 40.5 C74.1666775 41.74998122 76.33334417 42.99998121 78.5 44.25 C79.5725 44.86875 80.645 45.4875 81.75 46.125 C93.66666667 53 105.58333333 59.875 117.5 66.75 C118.5732251 67.36915283 119.6464502 67.98830566 120.75219727 68.6262207 C122.91159395 69.8720577 125.07093669 71.11798818 127.23022461 72.36401367 C133.88937753 76.20650926 140.55055549 80.04546427 147.21337891 83.8815918 C150.476804 85.76309268 153.73658984 87.65077913 156.99609375 89.5390625 C160.78426867 91.73148608 164.58649176 93.89356746 168.41015625 96.0234375 C169.21573975 96.47871826 170.02132324 96.93399902 170.85131836 97.40307617 C172.32060045 98.23308724 173.79634153 99.05181213 175.27954102 99.85668945 C177.1953125 100.94921875 177.1953125 100.94921875 180 103 C180 104.32 180 105.64 180 107 C179.48953125 107.2902002 178.9790625 107.58040039 178.453125 107.87939453 C168.04112227 113.80306719 157.65396142 119.76641948 147.3125 125.8125 C135.66190709 132.62360135 123.97628014 139.37273676 112.28222656 146.10888672 C106.85340058 149.23680148 101.42680719 152.36858448 96 155.5 C93.83334417 156.75001879 91.6666775 158.00001878 89.5 159.25 C87.89125 160.178125 87.89125 160.178125 86.25 161.125 C68.375 171.4375 68.375 171.4375 50.5 181.75 C49.42580811 182.36979736 48.35161621 182.98959473 47.24487305 183.62817383 C45.09554585 184.86802723 42.94597219 186.1074535 40.79614258 187.34643555 C35.72165511 190.27163763 30.64978383 193.20111723 25.5866394 196.14590454 C23.19684332 197.5354863 20.80563164 198.92262172 18.41430664 200.30957031 C16.72859411 201.28863253 15.04493413 202.27122606 13.36132812 203.25390625 C12.33845703 203.846875 11.31558594 204.43984375 10.26171875 205.05078125 C9.36412842 205.57325439 8.46653809 206.09572754 7.54174805 206.6340332 C5 208 5 208 0 210 C0 140.7 0 71.4 0 0 Z " fill="#FEFEFE" transform="translate(442,407)"/>
</svg>
